<svg xmlns="http://www.w3.org/2000/svg" viewBox="0 0 600 600"><defs><style>.cls-1{fill:#00a19a;}.cls-2{fill:#fafafa;}.cls-3{fill:#ededed;}.cls-4{fill:#dadada;}.cls-5{fill:#b2b2b2;}</style></defs><title>temple-eight-sample</title><g id="Layer_2" data-name="Layer 2"><rect class="cls-1" width="600" height="600"/></g><g id="Layer_1" data-name="Layer 1"><polygon class="cls-2" points="250 450 350 450 350 250 450 250 450 150 150 150 150 250 250 250 250 450"/><polygon class="cls-3" points="150 150 120 120 480 120 450 150 150 150"/><polygon class="cls-4" points="480 120 480 280 450 250 450 150 480 120"/><polygon class="cls-5" points="350 250 450 250 480 280 380 280 350 250"/><polygon class="cls-4" points="350 450 380 480 380 280 350 250 350 450"/><polygon class="cls-4" points="120 120 120 280 150 250 150 150 120 120"/><polygon class="cls-5" points="220 280 250 250 150 250 120 280 220 280"/><polygon class="cls-4" points="250 450 220 480 220 280 250 250 250 450"/><polygon class="cls-5" points="380 480 350 450 250 450 220 480 380 480"/></g></svg>